<svg width="160" height="160" viewBox="0 0 160 160" fill="none" xmlns="http://www.w3.org/2000/svg">
    <g clip-path="url(#clip0_1401_2)">
        <mask id="mask0_1401_2" style="mask-type:alpha" maskUnits="userSpaceOnUse" x="1" y="0" width="67" height="49">
            <path d="M29.8819 5.28179C17.1225 7.73604 7.14158 17.7701 4.70349 30.6032C3.56825 36.5741 2.63873 42.5731 1.91492 48.5925C14.5244 47.2159 30.047 43.5333 43.2508 34.4569C54.2248 26.9129 60.0483 14.0517 67.1568 0.845764C54.6692 1.43315 42.2121 2.91183 29.8819 5.28179Z" fill="white"/>
        </mask>
        <g mask="url(#mask0_1401_2)">
            <path fill-rule="evenodd" clip-rule="evenodd" d="M29.8819 5.28179C17.1225 7.73604 7.14158 17.7701 4.70349 30.6032C3.56825 36.5741 2.63873 42.5731 1.91492 48.5925C14.5244 47.2159 30.047 43.5333 43.2508 34.4569C54.2248 26.9129 60.0483 14.0517 67.1568 0.845764C54.6692 1.43315 42.2121 2.91183 29.8819 5.28179Z" fill="url(#paint0_linear_1401_2)"/>
        </g>
        <mask id="mask1_1401_2" style="mask-type:alpha" maskUnits="userSpaceOnUse" x="0" y="0" width="145" height="115">
            <path d="M79.0095 0.554626C74.3416 0.562288 69.6737 0.697642 65.0083 0.95558C58.1486 13.7095 52.5079 26.1186 41.9073 33.4048C29.1962 42.1415 14.273 45.7194 2.10286 47.0704C-0.716187 69.4293 -0.698409 92.0564 2.15873 114.408C13.7092 98.3567 28.7543 91.2417 39.266 89.8115C75.8984 84.8367 87.4235 60.1027 103.944 33.7368C113.041 19.2156 128.978 13.9163 144.028 12.55C139.891 8.92358 134.801 6.36463 129.168 5.2818C112.94 2.16355 96.4902 0.585273 80.0381 0.554626H79.0095Z" fill="white"/>
        </mask>
        <g mask="url(#mask1_1401_2)">
            <path fill-rule="evenodd" clip-rule="evenodd" d="M79.0095 0.554626C74.3416 0.562288 69.6737 0.697642 65.0083 0.95558C58.1486 13.7095 52.5079 26.1186 41.9073 33.4048C29.1962 42.1415 14.273 45.7194 2.10286 47.0704C-0.716187 69.4293 -0.698409 92.0564 2.15873 114.408C13.7092 98.3567 28.7543 91.2417 39.266 89.8115C75.8984 84.8367 87.4235 60.1027 103.944 33.7368C113.041 19.2156 128.978 13.9163 144.028 12.55C139.891 8.92358 134.801 6.36463 129.168 5.2818C112.94 2.16355 96.4902 0.585273 80.0381 0.554626H79.0095Z" fill="url(#paint1_linear_1401_2)"/>
        </g>
        <mask id="mask2_1401_2" style="mask-type:alpha" maskUnits="userSpaceOnUse" x="0" y="11" width="160" height="145">
            <path d="M103.944 32.4087C87.4235 58.7772 79.5225 77.9821 42.8927 82.9621C31.9822 84.4408 12.7365 85.0078 0.868561 102.034C1.63554 111.55 2.91555 121.032 4.70348 130.443C7.10856 143.113 16.8711 153.052 29.3994 155.665C31.6216 136.738 38.8038 119.758 58.7352 107.732C88.4343 89.8115 100.312 100.762 131.002 91.8035C142.857 88.3431 152.056 82.3288 159.012 76.0157C158.756 60.805 157.199 45.6096 154.344 30.6032C152.863 22.7935 148.589 16.0233 142.593 11.3651C127.972 12.9357 112.752 18.3498 103.944 32.4087Z" fill="white"/>
        </mask>
        <g mask="url(#mask2_1401_2)">
            <path fill-rule="evenodd" clip-rule="evenodd" d="M103.944 32.4087C87.4235 58.7772 79.5225 77.9821 42.8927 82.9621C31.9822 84.4408 12.7365 85.0078 0.868561 102.034C1.63554 111.55 2.91555 121.032 4.70348 130.443C7.10856 143.113 16.8711 153.052 29.3994 155.665C31.6216 136.738 38.8038 119.758 58.7352 107.732C88.4343 89.8115 100.312 100.762 131.002 91.8035C142.857 88.3431 152.056 82.3288 159.012 76.0157C158.756 60.805 157.199 45.6096 154.344 30.6032C152.863 22.7935 148.589 16.0233 142.593 11.3651C127.972 12.9357 112.752 18.3498 103.944 32.4087Z" fill="url(#paint2_linear_1401_2)"/>
        </g>
        <mask id="mask3_1401_2" style="mask-type:alpha" maskUnits="userSpaceOnUse" x="90" y="119" width="67" height="42">
            <path d="M126.024 123.042C102.499 131.687 93.6178 150.435 90.4889 160.262C103.446 159.721 116.373 158.221 129.168 155.762C141.93 153.308 151.909 143.274 154.344 130.443C155.043 126.768 155.665 123.083 156.208 119.39C155.126 119.367 154.024 119.354 152.907 119.354C143.86 119.354 133.801 120.179 126.024 123.042Z" fill="white"/>
        </mask>
        <g mask="url(#mask3_1401_2)">
            <path fill-rule="evenodd" clip-rule="evenodd" d="M126.024 123.042C102.499 131.687 93.6178 150.435 90.4889 160.262C103.446 159.721 116.373 158.221 129.168 155.762C141.93 153.308 151.909 143.274 154.344 130.443C155.043 126.768 155.665 123.083 156.208 119.39C155.126 119.367 154.024 119.354 152.907 119.354C143.86 119.354 133.801 120.179 126.024 123.042Z" fill="url(#paint3_linear_1401_2)"/>
        </g>
        <mask id="mask4_1401_2" style="mask-type:alpha" maskUnits="userSpaceOnUse" x="27" y="74" width="133" height="87">
            <path d="M130.596 90.8152C99.4641 99.9018 87.4159 88.7951 57.2876 106.971C37.1962 119.091 29.8743 136.177 27.5708 155.228C28.3302 155.433 29.0997 155.611 29.8819 155.762C46.1079 158.88 62.5524 160.459 79.0019 160.489H80.0483C84.6273 160.482 89.2064 160.351 93.7803 160.104C96.8127 150.698 105.305 133 127.581 124.809C135.784 121.793 146.644 121.15 155.916 121.323C158.004 107.803 159.05 94.1633 159.05 80.5232C159.05 78.6206 159.03 76.718 158.989 74.8154C151.937 81.2179 142.611 87.3037 130.596 90.8152Z" fill="white"/>
        </mask>
        <g mask="url(#mask4_1401_2)">
            <path fill-rule="evenodd" clip-rule="evenodd" d="M130.596 90.8152C99.4641 99.9018 87.4159 88.7951 57.2876 106.971C37.1962 119.091 29.8743 136.177 27.5708 155.228C28.3302 155.433 29.0997 155.611 29.8819 155.762C46.1079 158.88 62.5524 160.459 79.0019 160.489H80.0483C84.6273 160.482 89.2064 160.351 93.7803 160.104C96.8127 150.698 105.305 133 127.581 124.809C135.784 121.793 146.644 121.15 155.916 121.323C158.004 107.803 159.05 94.1633 159.05 80.5232C159.05 78.6206 159.03 76.718 158.989 74.8154C151.937 81.2179 142.611 87.3037 130.596 90.8152Z" fill="url(#paint4_linear_1401_2)"/>
        </g>
        <path d="M33.315 56.35C31.4483 56.35 29.71 56.035 28.1 55.405C26.5133 54.7517 25.125 53.8533 23.935 52.71C22.745 51.5667 21.8117 50.2367 21.135 48.72C20.4817 47.18 20.155 45.5233 20.155 43.75C20.155 41.9533 20.4817 40.2967 21.135 38.78C21.8117 37.24 22.745 35.8983 23.935 34.755C25.1483 33.6117 26.5483 32.725 28.135 32.095C29.745 31.4417 31.4717 31.115 33.315 31.115C34.6683 31.115 35.9983 31.3133 37.305 31.71C38.6117 32.1067 39.8133 32.6667 40.91 33.39C42.03 34.09 42.9633 34.93 43.71 35.91L39.65 39.9C38.7867 38.8033 37.8183 37.9867 36.745 37.45C35.695 36.9133 34.5517 36.645 33.315 36.645C32.335 36.645 31.4133 36.8317 30.55 37.205C29.71 37.555 28.975 38.045 28.345 38.675C27.715 39.305 27.225 40.0517 26.875 40.915C26.525 41.7783 26.35 42.7233 26.35 43.75C26.35 44.7533 26.525 45.6867 26.875 46.55C27.2483 47.39 27.75 48.1367 28.38 48.79C29.0333 49.42 29.7917 49.91 30.655 50.26C31.5417 50.61 32.4983 50.785 33.525 50.785C34.715 50.785 35.8117 50.5283 36.815 50.015C37.8417 49.5017 38.7633 48.7433 39.58 47.74L43.535 51.625C42.7883 52.5817 41.8667 53.4217 40.77 54.145C39.6733 54.845 38.4833 55.3933 37.2 55.79C35.9167 56.1633 34.6217 56.35 33.315 56.35ZM51.7187 56.315C50.412 56.315 49.2454 56.07 48.2187 55.58C47.2154 55.09 46.422 54.4133 45.8387 53.55C45.2787 52.6867 44.9987 51.695 44.9987 50.575C44.9987 48.8017 45.6637 47.4367 46.9937 46.48C48.347 45.5 50.2254 45.01 52.6287 45.01C54.0754 45.01 55.4754 45.185 56.8287 45.535V44.625C56.8287 43.6917 56.5254 43.0033 55.9187 42.56C55.3354 42.0933 54.4604 41.86 53.2937 41.86C52.5704 41.86 51.7537 41.9767 50.8437 42.21C49.957 42.4433 48.907 42.8167 47.6937 43.33L45.6637 39.165C47.1804 38.4883 48.6387 37.9867 50.0387 37.66C51.462 37.31 52.8854 37.135 54.3087 37.135C56.8754 37.135 58.8704 37.7533 60.2937 38.99C61.717 40.2033 62.4287 41.9183 62.4287 44.135V56H56.8287V54.88C56.082 55.3933 55.2887 55.7667 54.4487 56C53.632 56.21 52.722 56.315 51.7187 56.315ZM50.3887 50.47C50.3887 51.0533 50.6454 51.5083 51.1587 51.835C51.672 52.1617 52.3837 52.325 53.2937 52.325C53.9704 52.325 54.6004 52.255 55.1837 52.115C55.7904 51.975 56.3387 51.7533 56.8287 51.45V49.07C56.292 48.93 55.7437 48.825 55.1837 48.755C54.6237 48.685 54.052 48.65 53.4687 48.65C52.4887 48.65 51.7304 48.8133 51.1937 49.14C50.657 49.4433 50.3887 49.8867 50.3887 50.47ZM74.7588 56.35C72.9155 56.35 71.2472 55.93 69.7538 55.09C68.2838 54.25 67.1172 53.1067 66.2538 51.66C65.3905 50.19 64.9588 48.5567 64.9588 46.76C64.9588 44.94 65.3905 43.3067 66.2538 41.86C67.1172 40.4133 68.2838 39.27 69.7538 38.43C71.2472 37.5667 72.9155 37.135 74.7588 37.135C76.2755 37.135 77.7222 37.4383 79.0988 38.045C80.4755 38.6283 81.6422 39.4683 82.5988 40.565L79.1338 44.17C78.4805 43.4233 77.8155 42.8867 77.1388 42.56C76.4622 42.21 75.7155 42.035 74.8988 42.035C74.0822 42.035 73.3472 42.245 72.6938 42.665C72.0405 43.0617 71.5272 43.6217 71.1538 44.345C70.7805 45.045 70.5938 45.85 70.5938 46.76C70.5938 47.6467 70.7805 48.4517 71.1538 49.175C71.5505 49.875 72.0872 50.435 72.7638 50.855C73.4405 51.2517 74.1988 51.45 75.0388 51.45C75.8088 51.45 76.5205 51.2867 77.1738 50.96C77.8272 50.6333 78.4572 50.1317 79.0638 49.455L82.4238 52.955C81.4905 54.0283 80.3472 54.8683 78.9938 55.475C77.6405 56.0583 76.2288 56.35 74.7588 56.35ZM84.666 56V31.5L90.336 30.275V38.745C91.736 37.6717 93.3927 37.135 95.306 37.135C96.7527 37.135 98.0243 37.45 99.121 38.08C100.241 38.71 101.116 39.585 101.746 40.705C102.376 41.825 102.691 43.12 102.691 44.59V56H97.021V45.36C97.021 44.3333 96.7177 43.5167 96.111 42.91C95.5043 42.3033 94.6877 42 93.661 42C92.9377 42 92.296 42.1283 91.736 42.385C91.1993 42.6417 90.7327 43.0033 90.336 43.47V56H84.666ZM115.303 56.35C113.413 56.35 111.698 55.93 110.158 55.09C108.641 54.2267 107.439 53.0717 106.553 51.625C105.666 50.1783 105.223 48.5567 105.223 46.76C105.223 44.9633 105.643 43.3417 106.483 41.895C107.346 40.4483 108.513 39.305 109.983 38.465C111.453 37.6017 113.086 37.17 114.883 37.17C116.703 37.17 118.313 37.6133 119.713 38.5C121.113 39.3633 122.209 40.5533 123.003 42.07C123.819 43.5867 124.228 45.325 124.228 47.285V48.685H111.033C111.289 49.2683 111.628 49.7817 112.048 50.225C112.491 50.6683 113.016 51.0183 113.623 51.275C114.229 51.5083 114.883 51.625 115.583 51.625C116.353 51.625 117.053 51.5083 117.683 51.275C118.313 51.0183 118.849 50.6683 119.293 50.225L123.038 53.55C121.871 54.53 120.669 55.2417 119.433 55.685C118.219 56.1283 116.843 56.35 115.303 56.35ZM110.928 44.73H118.663C118.476 44.1233 118.184 43.61 117.788 43.19C117.414 42.7467 116.971 42.4083 116.458 42.175C115.944 41.9183 115.384 41.79 114.778 41.79C114.148 41.79 113.576 41.9067 113.062 42.14C112.549 42.3733 112.106 42.7117 111.733 43.155C111.383 43.575 111.114 44.1 110.928 44.73Z" fill="white"/>
        <path d="M124.411 123C128.37 123 131.739 124.356 134.516 127.069C137.293 129.781 138.682 133.092 138.682 137V137.306L141.518 134.506L144 136.956L136.909 143.956L129.818 136.956L132.3 134.506L135.136 137.306V137C135.136 134.083 134.095 131.604 132.012 129.563C129.929 127.521 127.395 126.5 124.411 126.5C123.643 126.5 122.89 126.588 122.151 126.763C121.413 126.938 120.689 127.2 119.98 127.55L117.32 124.925C118.443 124.283 119.595 123.802 120.777 123.481C121.959 123.16 123.17 123 124.411 123ZM112.091 130.044L119.182 137.044L116.7 139.494L113.864 136.694V137C113.864 139.917 114.905 142.396 116.988 144.438C119.071 146.479 121.605 147.5 124.589 147.5C125.357 147.5 126.11 147.413 126.849 147.238C127.588 147.063 128.311 146.8 129.02 146.45L131.68 149.075C130.557 149.717 129.405 150.198 128.223 150.519C127.041 150.84 125.83 151 124.589 151C120.63 151 117.261 149.644 114.484 146.931C111.707 144.219 110.318 140.908 110.318 137V136.694L107.482 139.494L105 137.044L112.091 130.044Z" fill="white"/>
    </g>
    <defs>
        <linearGradient id="paint0_linear_1401_2" x1="61.0013" y1="14.5395" x2="14.3645" y2="30.248" gradientUnits="userSpaceOnUse">
            <stop stop-color="#121C28"/>
            <stop offset="1" stop-color="#2A2367"/>
        </linearGradient>
        <linearGradient id="paint1_linear_1401_2" x1="114.404" y1="20.2994" x2="39.0881" y2="89.0192" gradientUnits="userSpaceOnUse">
            <stop stop-color="#28235B"/>
            <stop offset="1" stop-color="#E6007E"/>
        </linearGradient>
        <linearGradient id="paint2_linear_1401_2" x1="147.997" y1="55.3693" x2="21.0256" y2="123.426" gradientUnits="userSpaceOnUse">
            <stop stop-color="#FF9500"/>
            <stop offset="1" stop-color="#E6007E"/>
        </linearGradient>
        <linearGradient id="paint3_linear_1401_2" x1="154.688" y1="138.523" x2="112.34" y2="156.725" gradientUnits="userSpaceOnUse">
            <stop stop-color="#E6332A"/>
            <stop offset="1" stop-color="#FF645B"/>
        </linearGradient>
        <linearGradient id="paint4_linear_1401_2" x1="132.879" y1="107.08" x2="84.638" y2="147.806" gradientUnits="userSpaceOnUse">
            <stop stop-color="#FF9500"/>
            <stop offset="1" stop-color="#FF645B"/>
        </linearGradient>
        <clipPath id="clip0_1401_2">
            <rect width="160" height="160" fill="white"/>
        </clipPath>
    </defs>
</svg>
